:SAMPLES-PER-SECOND 30
:FULLY-SPECIFIED
:DEGREES
1007
root  13.0004 40.5455 10.4095 157.672 85.6456 163.403
RightUpLeg  2.6511 -12.8163 -12.3181
RightLeg  8.66894 -11.1061 2.35318
RightFoot  -0.608056 -0.276747 2.89916
RightToes  0.000481921 0.542163 -0.142578
Spine  -2.96914 -0.404133 1.74109
Spine1  14.9976 0.00617727 -1.26103
HEad  16.581 -4.30561 2.38514
LeftShoulder1  9.34053 -18.8449 -35.6738
LeftArm  -12.7913 -66.6246 -24.8205
LeftForeArm  2.58983 -7.4808 -10.1554
LeftHand  -0.25398 0.0180481 5.50724
RightShoulder  3.84788 11.2295 19.6887
RightArm  -11.738 67.8991 43.1106
RightForeArm  -14.1352 -4.88333 7.50314
RightHand  -2.4847 10.3379 -18.6531
LeftUpLeg  3.08473 7.71794 9.35739
LeftLeg  0.911589 10.3303 -3.16293
LeftFoot  5.31594 0.833553 -5.92181
LeftToes  1.06245e-005 4.65869e-005 -8.65517e-006
1008
root  12.9834 40.5474 10.3854 157.458 85.6427 163.154
RightUpLeg  2.61098 -12.8171 -12.3674
RightLeg  8.61037 -11.1007 2.36655
RightFoot  -0.524876 -0.282865 2.94216
RightToes  0.000481921 0.542163 -0.142578
Spine  -2.90099 -0.243956 2.06802
Spine1  15.0398 0.252764 -1.53978
HEad  15.9813 -4.4362 2.41829
LeftShoulder1  9.36563 -19.0424 -35.4217
LeftArm  -13.8474 -68.6184 -24.8066
LeftForeArm  6.80415 -4.48603 -10.2322
LeftHand  -0.25398 0.0180481 5.50724
RightShoulder  3.75661 11.3215 18.8506
RightArm  -15.6443 69.3186 42.9319
RightForeArm  -13.4847 -6.80574 6.01913
RightHand  -2.38459 9.81034 -18.5207
LeftUpLeg  3.02433 7.6711 9.27372
LeftLeg  0.903271 10.4137 -3.15209
LeftFoot  5.33494 0.829499 -5.87728
LeftToes  1.06245e-005 4.65869e-005 -8.65517e-006
1009
root  12.9816 40.5524 10.3596 157.597 85.5187 163.186
RightUpLeg  2.57954 -12.8081 -12.4398
RightLeg  8.49507 -11.2331 2.39366
RightFoot  -0.444697 -0.290871 3.01065
RightToes  0.000481921 0.542163 -0.142578
Spine  -2.92566 -0.185818 2.33796
Spine1  15.0084 0.423113 -1.91659
HEad  15.4334 -4.56314 2.72445
LeftShoulder1  9.34152 -19.1697 -35.0866
LeftArm  -13.6733 -70.3182 -25.02
LeftForeArm  9.61184 -2.05143 -10.2388
LeftHand  -0.25398 0.0180481 5.50724
RightShoulder  3.67365 11.2966 18.2916
RightArm  -17.8744 69.81 42.9203
RightForeArm  -15.1893 -6.44357 5.38091
RightHand  -2.37208 9.5481 -18.7325
LeftUpLeg  2.90767 7.58904 9.14297
LeftLeg  0.837027 10.433 -3.14269
LeftFoot  5.38778 0.82392 -5.82358
LeftToes  1.06245e-005 4.65869e-005 -8.65517e-006
1010
root  12.9917 40.5585 10.3371 158.194 85.3208 163.654
RightUpLeg  2.56761 -12.733 -12.474
RightLeg  8.35762 -11.5161 2.3872
RightFoot  -0.374907 -0.298714 3.08521
RightToes  0.000481921 0.542163 -0.142578
Spine  -3.04987 -0.212219 2.34902
Spine1  14.9898 0.425654 -2.01891
HEad  14.8882 -4.67872 3.06521
LeftShoulder1  9.30562 -19.2406 -34.804
LeftArm  -13.6875 -71.738 -25.1532
LeftForeArm  11.3399 0.201879 -10.2522
LeftHand  -0.25398 0.0180481 5.50724
RightShoulder  3.61325 11.1996 18.0254
RightArm  -18.4487 70.1273 43.1019
RightForeArm  -15.2041 -6.40179 5.13637
RightHand  -2.32651 9.43243 -18.5227
LeftUpLeg  2.79046 7.5355 9.0437
LeftLeg  0.726518 10.3336 -3.17072
LeftFoot  5.44801 0.820095 -5.78113
LeftToes  1.06245e-005 4.65869e-005 -8.65517e-006
1011
root  13.007 40.5628 10.3208 158.813 85.1438 164.178
RightUpLeg  2.57092 -12.6323 -12.4702
RightLeg  8.26572 -11.7961 2.34011
RightFoot  -0.329174 -0.30461 3.13871
RightToes  0.000481921 0.542163 -0.142578
Spine  -3.18465 -0.293098 2.13094
Spine1  15.0215 0.288881 -1.83416
HEad  14.1194 -4.68998 3.22587
LeftShoulder1  9.25276 -19.2254 -34.6021
LeftArm  -14.1207 -72.8908 -25.0796
LeftForeArm  12.6668 2.1636 -10.1342
LeftHand  -0.25398 0.0180481 5.50724
RightShoulder  3.59424 11.174 17.9316
RightArm  -18.365 70.5305 43.3613
RightForeArm  -12.9492 -6.42541 4.9764
RightHand  -2.21305 9.23259 -17.8865
LeftUpLeg  2.73351 7.52147 8.99707
LeftLeg  0.610105 10.1928 -3.22234
LeftFoot  5.48661 0.818461 -5.76806
LeftToes  1.06245e-005 4.65869e-005 -8.65517e-006
1012
root  13.0227 40.565 10.3079 158.977 85.053 164.301
RightUpLeg  2.57403 -12.5888 -12.4812
RightLeg  8.24599 -11.9142 2.29318
RightFoot  -0.303479 -0.307097 3.15334
RightToes  0.000481921 0.542163 -0.142578
Spine  -3.23832 -0.388788 1.87277
Spine1  15.0528 0.124443 -1.6067
HEad  13.0813 -4.54673 3.16727
LeftShoulder1  9.17694 -19.1368 -34.4302
LeftArm  -14.7579 -73.7363 -24.7586
LeftForeArm  13.9892 3.5338 -9.96586
LeftHand  -0.25398 0.0180481 5.50724
RightShoulder  3.6077 11.2454 17.9016
RightArm  -18.0565 70.796 43.7582
RightForeArm  -11.3754 -6.44561 4.89897
RightHand  -2.14746 9.12421 -17.5021
LeftUpLeg  2.74445 7.51209 8.96227
LeftLeg  0.517962 10.1315 -3.26105
LeftFoot  5.50205 0.817934 -5.76826
LeftToes  1.06245e-005 4.65869e-005 -8.65517e-006
1013
root  13.0376 40.5666 10.2955 158.67 85.0674 163.99
RightUpLeg  2.57785 -12.6023 -12.5161
RightLeg  8.26036 -11.8676 2.27181
RightFoot  -0.277881 -0.306875 3.13258
RightToes  0.000481921 0.542163 -0.142578
Spine  -3.21264 -0.435213 1.71755
Spine1  15.0576 0.0340276 -1.4622
HEad  12.0083 -4.35418 2.97703
LeftShoulder1  9.12043 -19.0572 -34.3254
LeftArm  -15.191 -74.2853 -24.3108
LeftForeArm  14.8849 4.1908 -9.92869
LeftHand  -0.25398 0.0180481 5.50724
RightShoulder  3.62805 11.3333 17.8929
RightArm  -17.5433 70.8213 44.1944
RightForeArm  -11.5546 -6.45958 5.00439
RightHand  -2.17731 9.30408 -17.5288
LeftUpLeg  2.79551 7.50611 8.93233
LeftLeg  0.476176 10.1722 -3.28259
LeftFoot  5.49771 0.816448 -5.75033
LeftToes  1.06245e-005 4.65869e-005 -8.65517e-006
